<svg width="34" height="34" viewBox="0 0 34 34" fill="none" xmlns="http://www.w3.org/2000/svg">
<rect width="34" height="34" fill="#E5E5E5"/>
<g clip-path="url(#clip0_0_1)">
<rect width="1920" height="4626" transform="translate(-1534 -33)" fill="white"/>
<rect x="-1521" y="-33" width="1920" height="940" fill="white"/>
<mask id="mask0_0_1" style="mask-type:alpha" maskUnits="userSpaceOnUse" x="-1521" y="-33" width="1920" height="940">
<rect x="-1521" y="-33" width="1920" height="940" fill="white"/>
</mask>
<g mask="url(#mask0_0_1)">
<g filter="url(#filter0_f_0_1)">
<circle cx="107" cy="177" r="509" fill="#FFE507" fill-opacity="0.07"/>
</g>
<g filter="url(#filter1_f_0_1)">
<circle cx="-1058" cy="705" r="646" fill="#F94A3D" fill-opacity="0.07"/>
</g>
</g>
<g filter="url(#filter2_d_0_1)">
<path d="M-246 8C-246 2.47715 -241.523 -2 -236 -2H-34C-28.4772 -2 -24 2.47715 -24 8V28C-24 33.5228 -28.4772 38 -34 38H-236C-241.523 38 -246 33.5228 -246 28V8Z" fill="white"/>
<path d="M-245.5 8C-245.5 2.75329 -241.247 -1.5 -236 -1.5H-34C-28.7533 -1.5 -24.5 2.75329 -24.5 8V28C-24.5 33.2467 -28.7533 37.5 -34 37.5H-236C-241.247 37.5 -245.5 33.2467 -245.5 28V8Z" stroke="#69697B" stroke-opacity="0.1"/>
</g>
<path d="M2.91816 16.9565H15.3862L17.3043 30H1L2.91816 16.9565Z" stroke="#232323" stroke-linejoin="round"/>
<path d="M12.9565 19.1304V15.3261C12.9565 13.225 11.2533 11.5217 9.15219 11.5217V11.5217C7.0511 11.5217 5.34784 13.225 5.34784 15.3261V19.1304" stroke="#232323"/>
<g filter="url(#filter3_d_0_1)">
<circle cx="17.3044" cy="12.6087" r="7.6087" fill="#F94A3D"/>
</g>
<path d="M17.1036 16H18.2236V14.48H19.1536V13.49H18.2236V8.8H16.8436L13.4836 13.62V14.48H17.1036V16ZM14.7936 13.49L17.1536 9.96V13.49H14.7936Z" fill="white"/>
</g>
<defs>
<filter id="filter0_f_0_1" x="-962" y="-892" width="2138" height="2138" filterUnits="userSpaceOnUse" color-interpolation-filters="sRGB">
<feFlood flood-opacity="0" result="BackgroundImageFix"/>
<feBlend mode="normal" in="SourceGraphic" in2="BackgroundImageFix" result="shape"/>
<feGaussianBlur stdDeviation="280" result="effect1_foregroundBlur_0_1"/>
</filter>
<filter id="filter1_f_0_1" x="-2264" y="-501" width="2412" height="2412" filterUnits="userSpaceOnUse" color-interpolation-filters="sRGB">
<feFlood flood-opacity="0" result="BackgroundImageFix"/>
<feBlend mode="normal" in="SourceGraphic" in2="BackgroundImageFix" result="shape"/>
<feGaussianBlur stdDeviation="280" result="effect1_foregroundBlur_0_1"/>
</filter>
<filter id="filter2_d_0_1" x="-276" y="-26" width="282" height="100" filterUnits="userSpaceOnUse" color-interpolation-filters="sRGB">
<feFlood flood-opacity="0" result="BackgroundImageFix"/>
<feColorMatrix in="SourceAlpha" type="matrix" values="0 0 0 0 0 0 0 0 0 0 0 0 0 0 0 0 0 0 127 0" result="hardAlpha"/>
<feOffset dy="6"/>
<feGaussianBlur stdDeviation="15"/>
<feColorMatrix type="matrix" values="0 0 0 0 0 0 0 0 0 0 0 0 0 0 0 0 0 0 0.04 0"/>
<feBlend mode="normal" in2="BackgroundImageFix" result="effect1_dropShadow_0_1"/>
<feBlend mode="normal" in="SourceGraphic" in2="effect1_dropShadow_0_1" result="shape"/>
</filter>
<filter id="filter3_d_0_1" x="0.695679" y="0" width="33.2174" height="33.2173" filterUnits="userSpaceOnUse" color-interpolation-filters="sRGB">
<feFlood flood-opacity="0" result="BackgroundImageFix"/>
<feColorMatrix in="SourceAlpha" type="matrix" values="0 0 0 0 0 0 0 0 0 0 0 0 0 0 0 0 0 0 127 0" result="hardAlpha"/>
<feOffset dy="4"/>
<feGaussianBlur stdDeviation="4.5"/>
<feColorMatrix type="matrix" values="0 0 0 0 0.92549 0 0 0 0 0.407843 0 0 0 0 0.152941 0 0 0 0.15 0"/>
<feBlend mode="normal" in2="BackgroundImageFix" result="effect1_dropShadow_0_1"/>
<feBlend mode="normal" in="SourceGraphic" in2="effect1_dropShadow_0_1" result="shape"/>
</filter>
<clipPath id="clip0_0_1">
<rect width="1920" height="4626" fill="white" transform="translate(-1534 -33)"/>
</clipPath>
</defs>
</svg>
